<?xml version="1.0" encoding="UTF-8" standalone="no"?>
<!DOCTYPE svg PUBLIC "-//W3C//DTD SVG 1.1//EN"
 "http://www.w3.org/Graphics/SVG/1.1/DTD/svg11.dtd">
<!-- Generated by graphviz version 2.40.1 (20161225.0304)
 -->
<!-- Title: %3 Pages: 1 -->
<svg width="388pt" height="260pt"
 viewBox="0.00 0.00 388.00 260.00" xmlns="http://www.w3.org/2000/svg" xmlns:xlink="http://www.w3.org/1999/xlink">
<g id="graph0" class="graph" transform="scale(1 1) rotate(0) translate(4 256)">
<title>%3</title>
<polygon fill="#ffffff" stroke="transparent" points="-4,4 -4,-256 384,-256 384,4 -4,4"/>
<!-- &#45;3254605147757825992 -->
<g id="node1" class="node">
<title>&#45;3254605147757825992</title>
<polygon fill="none" stroke="#000000" points="324.5,-252 55.5,-252 55.5,-216 324.5,-216 324.5,-252"/>
<text text-anchor="middle" x="190" y="-229" font-family="Helvetica,sans-Serif" font-size="20.00" fill="#000000">MapPartitions(Partitions)</text>
</g>
<!-- &#45;7921928763816738975 -->
<g id="node2" class="node">
<title>&#45;7921928763816738975</title>
<polygon fill="none" stroke="#000000" points="359,-180 21,-180 21,-144 359,-144 359,-180"/>
<text text-anchor="middle" x="190" y="-157" font-family="Helvetica,sans-Serif" font-size="20.00" fill="#000000">Partitions(MapPartitions, [0, 1])</text>
</g>
<!-- &#45;7921928763816738975&#45;&gt;&#45;3254605147757825992 -->
<g id="edge1" class="edge">
<title>&#45;7921928763816738975&#45;&gt;&#45;3254605147757825992</title>
<path fill="none" stroke="#000000" d="M190,-180.1686C190,-187.869 190,-197.0257 190,-205.5834"/>
<polygon fill="#000000" stroke="#000000" points="186.5001,-205.5867 190,-215.5867 193.5001,-205.5868 186.5001,-205.5867"/>
</g>
<!-- 8459055491035832384 -->
<g id="node3" class="node">
<title>8459055491035832384</title>
<polygon fill="none" stroke="#000000" points="380,-108 0,-108 0,-72 380,-72 380,-108"/>
<text text-anchor="middle" x="190" y="-85" font-family="Helvetica,sans-Serif" font-size="20.00" fill="#000000">MapPartitions(FromMapProjectable)</text>
</g>
<!-- 8459055491035832384&#45;&gt;&#45;7921928763816738975 -->
<g id="edge2" class="edge">
<title>8459055491035832384&#45;&gt;&#45;7921928763816738975</title>
<path fill="none" stroke="#000000" d="M190,-108.1686C190,-115.869 190,-125.0257 190,-133.5834"/>
<polygon fill="#000000" stroke="#000000" points="186.5001,-133.5867 190,-143.5867 193.5001,-133.5868 186.5001,-133.5867"/>
</g>
<!-- 4291727949006286631 -->
<g id="node4" class="node">
<title>4291727949006286631</title>
<polygon fill="none" stroke="#000000" points="302,-36 78,-36 78,0 302,0 302,-36"/>
<text text-anchor="middle" x="190" y="-13" font-family="Helvetica,sans-Serif" font-size="20.00" fill="#000000">FromMapProjectable</text>
</g>
<!-- 4291727949006286631&#45;&gt;8459055491035832384 -->
<g id="edge3" class="edge">
<title>4291727949006286631&#45;&gt;8459055491035832384</title>
<path fill="none" stroke="#000000" d="M190,-36.1686C190,-43.869 190,-53.0257 190,-61.5834"/>
<polygon fill="#000000" stroke="#000000" points="186.5001,-61.5867 190,-71.5867 193.5001,-61.5868 186.5001,-61.5867"/>
</g>
</g>
</svg>
